<svg width="16" height="13" viewBox="0 0 16 13" fill="none" xmlns="http://www.w3.org/2000/svg">
<path d="M5.81251 1.31629C6.47941 1.10441 7.17526 0.997709 7.87501 1.00004C10.7501 1.00004 12.7068 2.71879 13.8735 4.23404C14.4578 4.99442 14.75 5.37323 14.75 6.50005C14.75 7.62755 14.4578 8.00636 13.8735 8.76605C12.7068 10.2813 10.7501 12.0001 7.87501 12.0001C4.99988 12.0001 3.04325 10.2813 1.87656 8.76605C1.29219 8.00705 1 7.62686 1 6.50005C1 5.37254 1.29219 4.99373 1.87656 4.23404C2.23303 3.76848 2.62989 3.33528 3.0625 2.93948" stroke="#84BB93" stroke-width="1.5" stroke-linecap="round"/>
<path d="M9.93751 6.50001C9.93751 7.04702 9.72021 7.57163 9.33341 7.95842C8.94662 8.34522 8.42201 8.56251 7.875 8.56251C7.32799 8.56251 6.80339 8.34522 6.41659 7.95842C6.0298 7.57163 5.8125 7.04702 5.8125 6.50001C5.8125 5.953 6.0298 5.42839 6.41659 5.0416C6.80339 4.65481 7.32799 4.43751 7.875 4.43751C8.42201 4.43751 8.94662 4.65481 9.33341 5.0416C9.72021 5.42839 9.93751 5.953 9.93751 6.50001Z" stroke="#84BB93" stroke-width="1.5"/>
</svg>
