<svg width="20" height="19" viewBox="0 0 20 19" fill="none" xmlns="http://www.w3.org/2000/svg">
<path d="M13.0999 12.3591L13.5559 11.9061C14.1859 11.2801 15.1669 11.1511 15.9729 11.5891L17.8829 12.6281C19.1099 13.2951 19.3809 14.9301 18.4219 15.8831L17.0019 17.2951C16.6399 17.6551 16.1919 17.9171 15.6759 17.9651M1.00286 4.74507C0.967856 4.12507 1.25786 3.56707 1.69186 3.13507L3.26186 1.57507C4.13586 0.705068 5.60986 0.840067 6.37286 1.85907L7.63386 3.54307C8.25086 4.36707 8.18386 5.49507 7.47686 6.19707L7.19086 6.48307" stroke="#84BB93" stroke-width="1.5"/>
<path opacity="0.5" d="M15.6759 17.9651C14.0459 18.1171 10.0619 17.9491 5.81593 13.7271C1.81093 9.74509 1.09293 6.33209 1.00293 4.74609" stroke="#84BB93" stroke-width="1.5"/>
<path opacity="0.5" d="M13.0998 12.3614C13.0998 12.3614 12.0178 13.4374 9.06282 10.4994C6.10782 7.56137 7.19082 6.48438 7.19082 6.48438" stroke="#84BB93" stroke-width="1.5" stroke-linecap="round"/>
</svg>
